<svg
    xmlns="http://www.w3.org/2000/svg"
    viewBox="0 0 814 907"
    id="vector">
    <defs>
        <clipPath id="clip_path">
            <path d="M 519.08 -52 L 813.92 317.04 L 75.84 906.72 L -219 537.68 Z"/>
        </clipPath>
        <clipPath id="clip_path_1">
            <path d="M 519.08 -52 L 813.92 317.04 L 75.84 906.72 L -219 537.68 Z"/>
        </clipPath>
        <clipPath id="clip_path_2">
            <path d="M 519.08 -52 L 813.92 317.04 L 75.84 906.72 L -219 537.68 Z"/>
        </clipPath>
        <clipPath id="clip_path_3">
            <path d="M 519.08 -52 L 813.92 317.04 L 75.84 906.72 L -219 537.68 Z"/>
        </clipPath>
        <clipPath id="clip_path_4">
            <path d="M 519.08 -52 L 813.92 317.04 L 75.84 906.72 L -219 537.68 Z"/>
        </clipPath>
        <clipPath id="clip_path_5">
            <path d="M 519.08 -52 L 813.92 317.04 L 75.84 906.72 L -219 537.68 Z"/>
        </clipPath>
        <clipPath id="clip_path_6">
            <path d="M 519.08 -52 L 813.92 317.04 L 75.84 906.72 L -219 537.68 Z"/>
        </clipPath>
        <clipPath id="clip_path_7">
            <path d="M 519.08 -52 L 813.92 317.04 L 75.84 906.72 L -219 537.68 Z"/>
        </clipPath>
        <clipPath id="clip_path_8">
            <path d="M 519.08 -52 L 813.92 317.04 L 75.84 906.72 L -219 537.68 Z"/>
        </clipPath>
        <clipPath id="clip_path_9">
            <path d="M 519.08 -52 L 813.92 317.04 L 75.84 906.72 L -219 537.68 Z"/>
        </clipPath>
        <clipPath id="clip_path_10">
            <path d="M 519.08 -52 L 813.92 317.04 L 75.84 906.72 L -219 537.68 Z"/>
        </clipPath>
        <clipPath id="clip_path_11">
            <path d="M 519.08 -52 L 813.92 317.04 L 75.84 906.72 L -219 537.68 Z"/>
        </clipPath>
        <clipPath id="clip_path_12">
            <path d="M 519.08 -52 L 813.92 317.04 L 75.84 906.72 L -219 537.68 Z"/>
        </clipPath>
        <clipPath id="clip_path_13">
            <path d="M 519.08 -52 L 813.92 317.04 L 75.84 906.72 L -219 537.68 Z"/>
        </clipPath>
        <clipPath id="clip_path_14">
            <path d="M 519.08 -52 L 813.92 317.04 L 75.84 906.72 L -219 537.68 Z"/>
        </clipPath>
        <clipPath id="clip_path_15">
            <path d="M 519.08 -52 L 813.92 317.04 L 75.84 906.72 L -219 537.68 Z"/>
        </clipPath>
        <clipPath id="clip_path_16">
            <path d="M 519.08 -52 L 813.92 317.04 L 75.84 906.72 L -219 537.68 Z"/>
        </clipPath>
        <clipPath id="clip_path_17">
            <path d="M 519.08 -52 L 813.92 317.04 L 75.84 906.72 L -219 537.68 Z"/>
        </clipPath>
        <clipPath id="clip_path_18">
            <path d="M 519.08 -52 L 813.92 317.04 L 75.84 906.72 L -219 537.68 Z"/>
        </clipPath>
        <clipPath id="clip_path_19">
            <path d="M 519.08 -52 L 813.92 317.04 L 75.84 906.72 L -219 537.68 Z"/>
        </clipPath>
        <clipPath id="clip_path_20">
            <path d="M 519.08 -52 L 813.92 317.04 L 75.84 906.72 L -219 537.68 Z"/>
        </clipPath>
        <clipPath id="clip_path_21">
            <path d="M 519.08 -52 L 813.92 317.04 L 75.84 906.72 L -219 537.68 Z"/>
        </clipPath>
        <clipPath id="clip_path_22">
            <path d="M 519.08 -52 L 813.92 317.04 L 75.84 906.72 L -219 537.68 Z"/>
        </clipPath>
        <clipPath id="clip_path_23">
            <path d="M 519.08 -52 L 813.92 317.04 L 75.84 906.72 L -219 537.68 Z"/>
        </clipPath>
        <clipPath id="clip_path_24">
            <path d="M 519.08 -52 L 813.92 317.04 L 75.84 906.72 L -219 537.68 Z"/>
        </clipPath>
        <clipPath id="clip_path_25">
            <path d="M 519.08 -52 L 813.92 317.04 L 75.84 906.72 L -219 537.68 Z"/>
        </clipPath>
        <clipPath id="clip_path_26">
            <path d="M 519.08 -52 L 813.92 317.04 L 75.84 906.72 L -219 537.68 Z"/>
        </clipPath>
        <clipPath id="clip_path_27">
            <path d="M 519.08 -52 L 813.92 317.04 L 75.84 906.72 L -219 537.68 Z"/>
        </clipPath>
        <clipPath id="clip_path_28">
            <path d="M 519.08 -52 L 813.92 317.04 L 75.84 906.72 L -219 537.68 Z"/>
        </clipPath>
        <clipPath id="clip_path_29">
            <path d="M 519.08 -52 L 813.92 317.04 L 75.84 906.72 L -219 537.68 Z"/>
        </clipPath>
        <clipPath id="clip_path_30">
            <path d="M 519.08 -52 L 813.92 317.04 L 75.84 906.72 L -219 537.68 Z"/>
        </clipPath>
        <clipPath id="clip_path_31">
            <path d="M 519.08 -52 L 813.92 317.04 L 75.84 906.72 L -219 537.68 Z"/>
        </clipPath>
        <clipPath id="clip_path_32">
            <path d="M 519.08 -52 L 813.92 317.04 L 75.84 906.72 L -219 537.68 Z"/>
        </clipPath>
        <clipPath id="clip_path_33">
            <path d="M 519.08 -52 L 813.92 317.04 L 75.84 906.72 L -219 537.68 Z"/>
        </clipPath>
        <clipPath id="clip_path_34">
            <path d="M 519.08 -52 L 813.92 317.04 L 75.84 906.72 L -219 537.68 Z"/>
        </clipPath>
    </defs>
    <g id="group">
        <path
            id="path"
            clip-path="url(#clip_path)"
            d="M 527.19 400.77 C 528.25 400.22 529.52 400.27 530.54 400.89 C 538.22 405.62 545.57 410.85 552.51 416.52 C 552.85 416.79 553.2 417.06 553.65 417.41 C 559.49 421.99 561.38 423.67 563.49 426.68 C 566.47 430.93 567.46 435.71 566.21 441.41 C 564.4 449.59 559.81 457.72 553.34 465.16 C 549.5 469.53 542.44 473.77 537.01 474.4 C 530.89 475.15 523.96 473.94 515.24 471.18 C 513.68 470.68 512.09 470.14 510.26 469.5 C 509.55 469.26 508.82 469 507.92 468.68 C 507.6 468.56 506.11 468.03 505.7 467.88 C 502.34 466.68 499.41 465.75 493.57 463.97 C 492.94 463.77 492.94 463.77 492.3 463.58 C 483.44 460.87 478.9 459.34 473.67 457.11 C 465.49 453.41 456.95 450.54 448.19 448.54 C 445.1 447.84 444.57 443.66 447.38 442.2 L 527.19 400.77 Z"
            fill="#fbd2ae"/>
        <path
            id="path_1"
            clip-path="url(#clip_path_1)"
            d="M 383.37 543.75 C 400.37 558.81 436.44 583.38 447.95 584.46 C 459.11 585.58 469.51 580.99 481.09 571.59 C 484.41 568.9 487.25 566.34 492.16 561.74 L 493.72 560.28 C 503.94 550.47 513.13 539.7 521.2 528.11 C 531.09 514.24 529.47 506.23 516.11 491.25 C 502.09 475.89 487 461.6 470.94 448.46 C 469.55 447.32 467.51 447.46 466.28 448.79 L 383.12 538.89 C 381.83 540.29 381.94 542.48 383.37 543.75 Z"
            fill="#fbd2ae"/>
        <path
            id="path_2"
            clip-path="url(#clip_path_2)"
            d="M 492.71 550.93 C 488.96 547.33 484.67 543.12 479.59 538.05 C 475.82 534.29 472.01 530.46 466.19 524.59 C 449.95 508.21 446.67 504.92 440.51 498.89 C 439.16 497.58 437.01 497.6 435.69 498.94 C 434.38 500.29 434.4 502.44 435.74 503.76 C 441.87 509.75 445.15 513.04 461.36 529.39 C 467.18 535.26 471 539.1 474.78 542.87 C 479.89 547.97 484.21 552.21 488 555.84 C 489.35 557.15 491.51 557.1 492.81 555.75 C 494.11 554.39 494.07 552.24 492.71 550.93 Z"
            fill="#fcb7a0"/>
        <path
            id="path_3"
            clip-path="url(#clip_path_3)"
            d="M 386.66 481.15 C 391.04 461.58 392.16 444.62 389.27 430.13 C 385.24 409.8 376.84 389.44 365.24 373.78 C 351.4 355.11 333.73 343.83 312.95 342.31 C 308.4 341.98 303.57 342.67 297.7 344.38 L 316.6 316.66 C 317.97 314.65 316.85 311.9 314.47 311.41 C 306.15 309.71 289.93 310.6 267.67 313.4 C 252.69 315.28 237.7 317.64 222.17 320.35 C 218.18 321.05 213.83 321.97 209.12 323.1 C 197.54 325.88 184.03 329.87 168.11 335.09 C 160.55 337.57 152.74 340.23 143.37 343.49 C 139.5 344.83 124.9 349.95 121.59 351.09 C 75.24 367.18 29.49 391.14 -40.23 432.86 C -53.92 441.07 -73.36 454.37 -97.01 471.48 C -112.94 483.02 -163.09 522.16 -179.86 534.88 C -185.74 539.33 -191.17 543.48 -196.04 547.22 C -197.75 548.53 -199.26 549.7 -200.56 550.7 C -201.02 551.06 -201.28 551.26 -201.75 551.62 C -202.09 551.89 -202.09 551.89 -202.16 551.94 C -203.66 553.1 -203.92 555.27 -202.74 556.75 L -34.1 768.29 C -32.93 769.76 -30.78 770 -29.32 768.83 C 27.28 723.61 136.6 641.2 165.87 626.56 C 189.29 614.86 220.09 603.07 249.14 594.33 C 262.8 590.21 277.93 586.2 297.62 581.35 C 299.52 583.1 301.5 584.77 303.54 586.36 C 313.44 593.96 316.4 596.16 321.87 599.78 C 343.07 613.78 360.8 618.18 376.48 608.96 C 389.23 601.47 400.47 583.91 401.77 569.53 C 402.7 559.22 397.68 549.94 387.8 540.19 C 384.85 537.28 381.79 534.59 377.23 530.82 C 376.54 530.24 374.25 528.36 373.93 528.09 C 373.47 527.71 373.05 527.37 372.67 527.05 C 379.45 508.08 383.53 495.11 386.66 481.15 Z"
            fill="#fbd2ae"/>
        <path
            id="path_4"
            clip-path="url(#clip_path_4)"
            d="M 335.19 527.6 C 320.52 512.72 299.77 513.95 288.47 530.72 C 288.38 530.85 283.87 537.24 282.43 539.44 C 278.52 545.45 276.36 550.2 276.24 554.51 C 275.89 566.35 280.26 574.17 290.36 581.94 C 291.86 583.09 293.99 582.81 295.14 581.32 C 296.28 579.83 296 577.69 294.51 576.54 C 286.02 570.02 282.77 564.18 283.04 554.71 C 283.12 552.03 284.88 548.16 288.14 543.16 C 289.49 541.08 293.95 534.77 294.11 534.53 C 302.95 521.42 318.62 520.49 330.34 532.38 C 331.66 533.72 333.81 533.73 335.15 532.41 C 336.49 531.09 336.51 528.94 335.19 527.6 Z"
            fill="#fcb7a0"/>
        <path
            id="path_5"
            clip-path="url(#clip_path_5)"
            d="M 316.95 520.69 L 316.94 520.68 C 303.56 508.88 269.52 470.41 255.66 452.25 C 254.25 450.39 252.8 448.54 250.71 445.9 C 250.36 445.45 250.07 445.09 249.43 444.27 C 235.58 426.74 230.29 418.84 226.83 408.28 C 222.14 393.97 224.67 380.3 235.78 366.39 C 247.69 351.49 261.48 336.62 279.6 318.67 C 286.36 311.97 290.32 308.14 304.58 294.4 C 307.5 291.59 309.55 289.61 311.59 287.64 C 329.82 270.01 350.24 250.92 382.54 221.16 C 379.48 223.98 413.24 192.89 422.01 184.78 C 434.23 173.49 444.19 164.22 453.12 155.82 C 475.63 134.67 499.46 115.16 511.67 110.67 C 526.84 104.97 543.94 108.55 555.48 119.8 C 585.63 147.77 621.13 184.81 637.61 206.35 C 639.09 208.27 640.41 209.96 643.29 213.62 C 651.79 224.4 655.65 229.5 660.18 236.23 C 674.52 257.54 680.55 275.61 675.94 292.45 C 673.41 301.64 666.78 311.18 656.35 322.17 C 653.74 324.92 650.94 327.71 647.64 330.88 C 646.38 332.1 645.1 333.32 643.44 334.88 C 643.75 334.6 640.37 337.79 639.51 338.6 C 638.43 339.62 637.54 340.47 636.72 341.27 C 636.06 341.9 636.06 341.9 635.41 342.53 C 608.34 368.53 607.56 369.28 597.54 379.1 C 590.71 385.79 584.43 392.02 578.47 398.03 C 525.21 451.98 478.93 495.78 432.05 535.79 C 410.9 553.85 393.54 562.41 374.88 558.87 C 366.05 557.17 355.43 551.39 343.23 542.44 C 338.21 538.76 333.13 534.68 327.78 530.14 C 325.77 528.43 323.81 526.73 321.61 524.8 C 320.71 524 317.59 521.25 316.95 520.69 Z"
            fill="#1a4e66"/>
        <path
            id="path_6"
            clip-path="url(#clip_path_6)"
            d="M 323.33 505.91 C 308.98 491.54 295.54 476.3 283.08 460.27 C 265.08 436.71 246.43 419.7 269.19 391.21 C 289.45 365.85 319.84 338.19 343.27 315.53 C 381.37 278.69 436.04 229.86 474.8 193.39 C 485.24 183.56 521.54 150.27 535.06 146.54 C 548.59 142.82 560.18 150.93 567.7 157.4 C 585.87 172.88 606.45 193 622.75 214.3 C 637.57 233.67 664.46 263.26 657.08 289.99 C 652.75 305.69 628.12 326.39 616.92 337.33 C 599.44 354.25 581.28 371.53 563.89 389.15 C 521.09 432.49 470.79 479.87 424.16 519.67 C 411.21 530.74 393.44 543.56 374.69 540 C 357.21 536.65 331.75 514.15 323.33 505.91 Z"
            fill="#ffffff"/>
        <path
            id="path_7"
            clip-path="url(#clip_path_7)"
            d="M 544.35 122.35 C 534.78 119.32 522.01 126.09 504.73 140.39 C 500.34 144.01 496.11 147.74 490.32 153.01 C 489.5 153.75 486.09 156.86 485.24 157.63 C 483.42 159.28 482.07 160.49 480.88 161.54 C 469.93 171.14 457.39 182.47 440.17 198.21 C 437.75 200.42 435.21 202.74 432.33 205.38 C 430.43 207.12 419.15 217.46 415.98 220.37 C 409.87 225.96 405.08 230.34 400.68 234.33 C 359.34 271.84 316.21 313.08 269.19 359.73 C 256.19 372.6 245.41 386.42 239.94 398.66 C 239.17 400.37 239.94 402.39 241.66 403.15 C 243.37 403.92 245.38 403.15 246.15 401.44 C 251.22 390.12 261.53 376.9 273.98 364.56 C 320.94 317.98 364 276.81 405.26 239.37 C 409.66 235.37 414.46 230.99 420.58 225.39 C 423.75 222.48 435.03 212.14 436.93 210.4 C 439.81 207.76 442.34 205.44 444.77 203.23 C 461.95 187.52 474.47 176.22 485.36 166.66 C 486.6 165.58 487.97 164.35 489.81 162.67 C 490.67 161.9 494.08 158.79 494.9 158.05 C 500.62 152.84 504.78 149.18 509.06 145.63 C 524.43 132.93 535.94 126.82 542.29 128.84 C 544.08 129.41 545.99 128.41 546.56 126.62 C 547.13 124.83 546.14 122.92 544.35 122.35 Z"
            fill="#0d323f"/>
        <path
            id="path_8"
            clip-path="url(#clip_path_8)"
            d="M 139.48 390.13 C 137.92 388.08 139.12 385.11 141.66 384.71 C 150.46 383.34 159.98 382.17 171.44 380.98 C 176.14 380.5 180.98 380.03 187.38 379.43 C 189.43 379.24 196.92 378.54 196.32 378.6 C 199.9 378.27 202.57 378.01 205.17 377.77 C 211.81 377.13 217.28 376.56 222.41 375.98 C 262.28 371.43 297.33 371.87 326.86 378.92 C 343.78 382.96 351.78 397.39 346.83 414.52 C 344.25 423.49 337.66 429.08 327.39 432.69 C 323.36 434.11 319.35 435.1 312.73 436.46 C 304.18 438.22 304.2 438.21 301.49 438.94 C 291.63 441.56 277.42 449.54 265.35 458.44 C 260.19 462.25 254.96 467.38 249.48 473.84 C 245.23 478.85 241.06 484.36 236.06 491.41 C 235.02 492.88 233.96 494.39 232.64 496.28 C 232.3 496.78 230.05 500.01 229.41 500.91 C 228.09 502.81 225.31 502.86 223.92 501.03 L 139.48 390.13 Z"
            fill="#fbd2ae"/>
        <path
            id="path_9"
            clip-path="url(#clip_path_9)"
            d="M 443.39 184.31 C 450.43 177.85 457.51 171.57 464.57 165.52 C 466 164.29 466.17 162.14 464.94 160.72 C 463.72 159.29 461.57 159.12 460.14 160.35 C 453.02 166.45 445.89 172.78 438.79 179.29 C 437.4 180.56 437.31 182.71 438.58 184.1 C 439.85 185.48 442.01 185.58 443.39 184.31 Z"
            fill="#0d323f"/>
        <path
            id="path_10"
            clip-path="url(#clip_path_10)"
            d="M 408.92 216.27 C 415.51 209.92 422.65 203.37 430.44 196.51 C 431.85 195.27 431.99 193.12 430.74 191.71 C 429.5 190.3 427.35 190.16 425.94 191.4 C 418.08 198.32 410.86 204.94 404.2 211.36 C 402.84 212.66 402.8 214.82 404.1 216.17 C 405.41 217.53 407.56 217.57 408.92 216.27 Z"
            fill="#0d323f"/>
        <path
            id="path_11"
            clip-path="url(#clip_path_11)"
            d="M 259.37 462.26 C 250.95 470.41 245.51 478.28 238.61 490.85 C 238.23 491.54 237.85 492.24 237.34 493.18 C 237.03 493.76 237.03 493.76 236.71 494.33 C 236.4 494.9 236.28 495.14 236.09 495.47 C 235.1 497.29 234.37 498.62 233.64 499.9 C 232.71 501.54 233.29 503.62 234.92 504.55 C 236.56 505.47 238.64 504.9 239.56 503.26 C 240.31 501.94 241.06 500.58 242.07 498.73 C 242.26 498.39 242.38 498.16 242.7 497.58 C 243.01 497.01 243.01 497.01 243.32 496.43 C 243.83 495.5 244.21 494.81 244.58 494.12 C 251.18 482.1 256.27 474.74 264.11 467.15 C 265.46 465.84 265.49 463.69 264.18 462.33 C 262.88 460.98 260.72 460.95 259.37 462.26 Z"
            fill="#fcb7a0"/>
        <path
            id="path_12"
            clip-path="url(#clip_path_12)"
            d="M 147.45 383.92 C 156.06 382.58 165.41 381.43 176.69 380.27 C 181.38 379.78 186.21 379.32 192.61 378.72 C 194.66 378.53 202.13 377.83 201.59 377.89 C 205.18 377.55 207.87 377.3 210.49 377.05 C 217.19 376.4 222.72 375.84 227.91 375.24 C 229.77 375.03 231.12 373.34 230.9 371.48 C 230.69 369.61 229 368.27 227.13 368.48 C 221.99 369.06 216.5 369.63 209.84 370.27 C 207.23 370.52 204.54 370.77 200.96 371.11 C 201.5 371.05 194.03 371.75 191.98 371.94 C 185.56 372.54 180.71 373.01 175.99 373.49 C 164.61 374.67 155.14 375.83 146.4 377.2 C 144.55 377.49 143.27 379.23 143.57 381.08 C 143.85 382.94 145.6 384.21 147.45 383.92 Z"
            fill="#fcb7a0"/>
        <path
            id="path_13"
            clip-path="url(#clip_path_13)"
            d="M 157.98 556.49 C 159.54 559.72 160.82 563.06 161.83 566.49 C 162.36 568.29 164.25 569.33 166.05 568.8 C 167.86 568.27 168.89 566.38 168.36 564.57 C 167.25 560.78 165.83 557.1 164.12 553.54 C 163.3 551.84 161.27 551.13 159.57 551.95 C 157.88 552.76 157.17 554.8 157.98 556.49 Z"
            fill="#fcb7a0"/>
        <path
            id="path_14"
            clip-path="url(#clip_path_14)"
            d="M 146.48 647.66 C 122.91 664.52 83.69 692.45 53.43 716.63 L -129.05 488.23 C -115.41 473.92 -95.93 461.78 -82.88 453 C -62.7 439.51 -41.76 427.2 -20.17 416.11 C -18.95 426.03 -16.05 434.91 -13.35 444.71 C -4.67 476.36 10.21 505.33 27.42 533.43 C 51.05 572.01 80.03 612.29 117.92 637.82 C 124.57 642.27 139.43 649.42 146.48 647.66 Z"
            fill="#ffffff"/>
        <path
            id="path_15"
            clip-path="url(#clip_path_15)"
            d="M 148.46 650.43 C 151.52 648.25 149.3 643.45 145.66 644.36 C 140.9 645.54 128.1 640.53 119.81 634.99 C 87.26 613.06 59.87 579.9 30.32 531.65 C 10.66 499.54 -2.3 472.12 -10.07 443.81 C -10.4 442.6 -10.75 441.36 -11.2 439.79 C -11.22 439.7 -11.3 439.43 -11.4 439.06 C -11.68 438.1 -12.14 436.46 -12.31 435.86 C -14.84 426.91 -16.06 421.65 -16.79 415.69 C -17.08 413.34 -19.62 412 -21.73 413.08 C -43.43 424.23 -64.48 436.61 -84.77 450.17 C -86.56 451.38 -93.59 456.04 -93.5 455.98 C -103.56 462.68 -110.42 467.52 -117.16 472.91 C -122.63 477.29 -127.41 481.58 -131.51 485.88 C -132.68 487.12 -132.77 489.03 -131.71 490.36 L 50.77 718.75 C 51.94 720.22 54.08 720.46 55.55 719.28 C 64.85 711.86 75.43 703.72 87.24 694.89 C 98.6 686.4 110.67 677.57 124.24 667.79 C 131.39 662.64 133.33 661.25 148.46 650.43 Z M 24.51 535.21 C 54.53 584.22 82.47 618.04 116.02 640.64 C 122.21 644.78 130.14 648.52 136.98 650.27 C 128.4 656.41 126.01 658.12 120.26 662.27 C 106.66 672.06 94.56 680.92 83.17 689.44 C 72.41 697.48 62.66 704.95 53.96 711.85 L -124.5 488.46 C -121.11 485.09 -117.24 481.7 -112.91 478.23 C -106.36 472.99 -99.63 468.24 -89.73 461.65 C -89.84 461.72 -82.78 457.04 -80.98 455.83 C -62.23 443.3 -42.82 431.78 -22.84 421.32 C -22.02 425.98 -20.81 430.82 -18.86 437.72 C -18.69 438.32 -18.22 439.97 -17.95 440.93 C -17.84 441.3 -17.77 441.56 -17.75 441.64 C -17.3 443.2 -16.96 444.42 -16.63 445.61 C -8.67 474.63 4.55 502.59 24.51 535.21 Z"
            fill="#91d5dd"
            fill-rule="evenodd"/>
        <path
            id="path_16"
            clip-path="url(#clip_path_16)"
            d="M 98.82 709.55 C 99.66 708.87 100.13 707.84 100.08 706.76 C 100.04 705.69 99.49 704.7 98.6 704.09 C 89.76 698.08 78.54 690.24 70.7 683.76 C 33.16 652.75 6.28 623.98 -25.25 581.04 C -42.78 557.16 -65.14 522.65 -79.54 499.03 C -88.61 484.17 -95.79 468.96 -98.75 458.41 C -99.05 457.35 -99.85 456.5 -100.88 456.13 C -101.92 455.75 -103.06 455.9 -103.97 456.52 C -125.08 470.99 -144.25 484.34 -164.77 500.74 C -185.55 517.34 -215.89 541.58 -215.89 541.58 L -11.89 796.91 C 9.15 778.08 44.27 751.33 67.38 733.91 C 80.01 724.19 91.05 715.91 98.82 709.55 Z"
            fill="#1a4e66"/>
        <path
            id="path_17"
            clip-path="url(#clip_path_17)"
            d="M 120.74 672.85 C 120.11 676.06 112.7 680.6 105.56 682.62 C 103.75 683.13 102.69 685.01 103.2 686.82 C 103.71 688.63 105.59 689.68 107.4 689.17 C 116.9 686.49 126.11 680.85 127.42 674.17 C 127.78 672.32 126.58 670.53 124.74 670.17 C 122.89 669.81 121.1 671.01 120.74 672.85 Z"
            fill="#91d5dd"/>
        <path
            id="path_18"
            clip-path="url(#clip_path_18)"
            d="M 146.08 640.61 C 146.38 641.37 145.7 644.22 144.73 644.82 C 143.13 645.81 142.64 647.91 143.63 649.51 C 144.62 651.11 146.72 651.6 148.32 650.6 C 152.32 648.13 153.83 641.77 152.43 638.16 C 151.76 636.4 149.79 635.53 148.03 636.21 C 146.28 636.89 145.41 638.85 146.08 640.61 Z"
            fill="#91d5dd"/>
        <path
            id="path_19"
            clip-path="url(#clip_path_19)"
            d="M 402.85 357.24 C 402.67 357.29 402.31 357.37 401.82 357.5 C 400.99 357.7 400.08 357.92 399.09 358.17 C 396.26 358.86 393.43 359.55 390.78 360.18 L 390.31 360.29 C 384.61 361.64 380.58 362.54 379.29 362.73 C 377.43 363 376.14 364.73 376.42 366.59 C 376.69 368.45 378.42 369.74 380.28 369.47 C 381.86 369.24 385.9 368.33 391.88 366.91 L 392.36 366.8 C 395.02 366.17 397.87 365.48 400.71 364.78 C 401.7 364.54 402.62 364.31 403.45 364.11 C 403.95 363.98 404.3 363.9 404.49 363.85 C 406.32 363.39 407.43 361.55 406.98 359.73 C 406.52 357.9 404.68 356.79 402.85 357.24 Z"
            fill="#3b3b3b"/>
        <path
            id="path_20"
            clip-path="url(#clip_path_20)"
            d="M 442.41 405.47 C 440.64 412.71 438.42 419.83 435.76 426.8 C 435.09 428.55 435.97 430.52 437.73 431.19 C 439.49 431.86 441.45 430.98 442.13 429.22 C 444.88 421.99 447.19 414.6 449.03 407.09 C 449.48 405.26 448.36 403.42 446.53 402.97 C 444.7 402.52 442.86 403.64 442.41 405.47 Z"
            fill="#3b3b3b"/>
        <path
            id="path_21"
            clip-path="url(#clip_path_21)"
            d="M 457.28 271.83 C 457.2 275.38 456.93 279.11 456.41 284.71 C 456.34 285.49 456.27 286.21 456.15 287.49 C 455.37 295.59 455.11 298.93 454.98 303.09 C 454.92 304.97 456.4 306.54 458.28 306.6 C 460.16 306.66 461.73 305.18 461.78 303.3 C 461.9 299.33 462.17 296.08 462.93 288.14 C 463.05 286.85 463.12 286.13 463.19 285.34 C 463.73 279.6 464 275.73 464.08 271.98 C 464.12 270.1 462.63 268.54 460.75 268.5 C 458.87 268.46 457.32 269.95 457.28 271.83 Z"
            fill="#3b3b3b"/>
        <path
            id="path_22"
            clip-path="url(#clip_path_22)"
            d="M 504.69 354.1 C 504.76 354.07 504.76 354.07 505.15 353.97 C 505.53 353.87 505.97 353.75 506.47 353.62 C 507.9 353.25 509.5 352.83 511.22 352.4 C 516.15 351.14 521.11 349.94 525.79 348.87 C 527.08 348.58 528.33 348.3 529.54 348.04 C 536.84 346.45 542.35 345.5 545.28 345.39 C 547.16 345.31 548.62 343.73 548.55 341.85 C 548.47 339.97 546.89 338.51 545.01 338.58 C 541.55 338.72 535.78 339.71 528.09 341.38 C 526.86 341.65 525.59 341.93 524.28 342.23 C 519.54 343.31 514.52 344.53 509.55 345.8 C 507.8 346.24 506.19 346.66 504.75 347.04 C 504.24 347.17 503.79 347.29 503.4 347.39 C 503.01 347.49 503.01 347.49 502.92 347.52 C 501.11 348.01 500.03 349.87 500.52 351.69 C 501 353.51 502.87 354.58 504.69 354.1 Z"
            fill="#3b3b3b"/>
        <path
            id="path_23"
            clip-path="url(#clip_path_23)"
            d="M 490.07 306.79 C 478.79 298.57 464.62 295.37 450.9 297.95 C 437.7 300.13 428.97 304.86 419.36 313.87 C 410.18 322.44 403.46 333.7 403.39 347.05 C 403.23 374.77 423.55 400.07 451.2 407.08 C 476.44 413.48 503.9 395.02 513.88 372.52 C 520.93 356.58 518.1 339.04 507.92 325.17 C 503.47 318.64 498.02 312.85 491.77 308.01 C 491.22 307.59 490.65 307.18 490.07 306.79 Z"
            fill="#ffffff"/>
        <path
            id="path_24"
            clip-path="url(#clip_path_24)"
            d="M 417.04 311.38 C 427.42 301.65 436.83 296.83 450.27 294.61 C 464.89 291.86 480 295.26 492.04 304 C 492.61 304.4 493.2 304.82 493.85 305.31 C 500.38 310.37 506.08 316.42 510.66 323.15 C 521.83 338.35 524.38 357.2 516.99 373.9 C 505.69 399.39 475.97 416.87 450.37 410.38 C 421.14 402.97 399.82 376.27 399.98 347.03 C 400.06 333.62 406.29 321.42 417.04 311.38 Z M 489.72 310.72 C 489.17 310.31 488.65 309.93 488.16 309.6 L 488.07 309.54 C 477.55 301.87 464.33 298.89 451.45 301.31 C 439.3 303.32 431.12 307.51 421.69 316.35 C 412.21 325.2 406.86 335.7 406.79 347.06 C 406.65 373.13 425.81 397.13 452.04 403.78 C 474.18 409.39 500.73 393.78 510.76 371.14 C 517.13 356.74 514.93 340.47 505.11 327.08 C 500.85 320.85 495.65 315.32 489.72 310.72 Z"
            fill="#3b3b3b"
            fill-rule="evenodd"/>
        <path
            id="path_25"
            clip-path="url(#clip_path_25)"
            d="M 461.2 333.93 C 461.9 332.19 461.06 330.2 459.31 329.5 C 457.57 328.8 455.58 329.65 454.88 331.39 C 451.68 339.38 449.14 347.61 447.29 356.02 C 446.73 358.54 449.08 360.74 451.57 360.02 C 461.88 357.01 471.99 353.36 481.85 349.07 C 483.04 348.57 484.36 348.01 485.78 347.41 C 486.1 347.28 486.1 347.28 486.42 347.15 C 488.96 346.09 491.65 344.98 494.33 343.88 C 495.26 343.49 496.13 343.14 496.9 342.82 C 497.37 342.63 497.7 342.5 497.88 342.43 C 499.62 341.72 500.45 339.73 499.75 337.99 C 499.04 336.25 497.05 335.41 495.31 336.12 C 495.13 336.19 494.8 336.33 494.33 336.52 C 493.55 336.84 492.68 337.19 491.74 337.58 C 489.05 338.68 486.35 339.8 483.79 340.86 C 483.48 341 483.48 341 483.16 341.13 C 481.72 341.73 480.38 342.3 479.16 342.82 C 471.36 346.21 463.4 349.19 455.32 351.76 C 456.9 345.7 458.86 339.75 461.2 333.93 Z"
            fill="#3b3b3b"/>
        <path
            id="path_26"
            clip-path="url(#clip_path_26)"
            d="M 411.31 289.79 C 402.86 292.3 394.24 298.97 387.41 308.26 C 382.02 315.4 379.09 324.14 379.07 333.13 C 379.07 335.02 380.59 336.54 382.47 336.55 C 384.35 336.55 385.88 335.03 385.88 333.15 C 385.89 325.63 388.35 318.32 392.87 312.32 C 398.9 304.12 406.34 298.37 413.25 296.32 C 415.05 295.78 416.08 293.89 415.54 292.08 C 415.01 290.28 413.11 289.26 411.31 289.79 Z"
            fill="#eaf3f3"/>
        <path
            id="path_27"
            clip-path="url(#clip_path_27)"
            d="M 382.86 289.24 C 372.7 297.47 366.08 308.15 364.73 319.42 C 364.51 321.29 365.84 322.98 367.71 323.2 C 369.57 323.43 371.27 322.1 371.49 320.23 C 372.61 310.86 378.29 301.71 387.15 294.53 C 388.61 293.34 388.83 291.2 387.65 289.74 C 386.46 288.28 384.32 288.05 382.86 289.24 Z"
            fill="#eaf3f3"/>
        <path
            id="path_28"
            clip-path="url(#clip_path_28)"
            d="M 515.32 396.49 C 512.69 403.05 505.11 410.17 495.54 416.3 C 488.32 420.93 476.17 424.8 468.8 424.68 C 466.92 424.65 465.37 426.14 465.34 428.03 C 465.31 429.9 466.81 431.45 468.68 431.48 C 477.48 431.63 490.92 427.35 499.21 422.04 C 509.89 415.2 518.34 407.26 521.64 399.02 C 522.34 397.28 521.49 395.29 519.75 394.59 C 518 393.89 516.02 394.74 515.32 396.49 Z"
            fill="#eaf3f3"/>
        <path
            id="path_29"
            clip-path="url(#clip_path_29)"
            d="M 511.6 422 C 506.27 428.49 497.55 433.39 488.89 435.47 C 487.06 435.91 485.94 437.74 486.37 439.57 C 486.81 441.4 488.65 442.53 490.48 442.09 C 500.49 439.69 510.52 434.06 516.87 426.31 C 518.06 424.86 517.85 422.72 516.39 421.52 C 514.94 420.33 512.79 420.54 511.6 422 Z"
            fill="#eaf3f3"/>
        <path
            id="path_30"
            clip-path="url(#clip_path_30)"
            d="M 493.63 285.54 C 493.18 287.06 491.73 288.07 490.14 287.97 C 485.18 287.64 479.31 287.2 475.99 286.89 C 475.45 286.84 475.01 286.8 474.04 286.71 C 467.64 286.12 464.81 285.85 461.32 285.43 C 450.33 284.02 439.24 283.77 428.2 284.69 C 425.89 284.89 424.06 282.74 424.62 280.48 C 424.7 280.15 424.78 279.81 424.86 279.47 C 425.3 277.59 426.77 270.46 427.16 268.77 C 429.47 259.04 433 253.02 440.91 247.77 C 448.15 243.38 456.61 241.46 465.11 242.3 C 473.27 243.3 482.58 248.16 487.01 254.25 C 490.24 258.8 492.66 263.87 494.15 269.24 L 494.2 269.42 C 495.38 274.75 495.18 280.3 493.63 285.54 Z"
            fill="#eaf3f3"/>
        <path
            id="path_31"
            clip-path="url(#clip_path_31)"
            d="M 519.28 316.23 C 519.35 316.48 519.47 316.97 519.65 317.65 C 519.94 318.78 520.27 320.04 520.61 321.4 C 521.61 325.28 522.6 329.17 523.52 332.8 L 523.61 333.14 C 524.79 337.82 525.76 341.7 526.44 344.52 C 526.65 345.38 527.39 348.41 527.33 348.16 C 527.68 349.58 527.93 350.61 528.17 351.61 C 528.78 354.13 529.27 356.17 529.72 358.12 C 529.99 359.29 530.25 360.41 530.5 361.51 C 531.55 366.22 532.46 370.63 533.34 375.45 C 533.65 377.15 535.17 378.34 536.89 378.24 C 554.14 377.23 569.55 368.07 572.33 353.54 C 573.69 344.92 571.98 336.21 567.52 328.83 C 561.12 318.22 554.16 312.79 543.2 310.16 C 539.03 309.11 534.35 309.39 528.18 310.64 C 527.17 310.84 526.14 311.07 524.88 311.35 C 524.42 311.46 522.36 311.93 521.83 312.05 C 519.95 312.48 518.8 314.37 519.28 316.23 Z"
            fill="#eaf3f3"/>
        <path
            id="path_32"
            clip-path="url(#clip_path_32)"
            d="M 716.7 267.11 L 756.9 257.46 C 759.19 256.91 760.59 254.61 760.05 252.32 C 759.5 250.04 757.2 248.63 754.91 249.18 L 714.72 258.83 C 712.43 259.38 711.02 261.68 711.57 263.96 C 712.12 266.25 714.42 267.66 716.7 267.11 Z"
            fill="#ccc9c6"/>
        <path
            id="path_33"
            clip-path="url(#clip_path_33)"
            d="M 773.87 309.94 L 729.54 297.4 C 727.28 296.76 724.93 298.08 724.29 300.34 C 723.65 302.6 724.96 304.95 727.23 305.59 L 771.56 318.13 C 773.82 318.77 776.17 317.45 776.81 315.19 C 777.45 312.93 776.13 310.58 773.87 309.94 Z"
            fill="#ccc9c6"/>
        <path
            id="path_34"
            clip-path="url(#clip_path_34)"
            d="M 699.69 342.21 L 721.52 368.46 C 723.02 370.27 725.7 370.52 727.51 369.02 C 729.32 367.51 729.56 364.83 728.06 363.02 L 706.24 336.77 C 704.74 334.97 702.05 334.72 700.25 336.22 C 698.44 337.72 698.19 340.41 699.69 342.21 Z"
            fill="#ccc9c6"/>
    </g>
</svg>
