<svg
    xmlns="http://www.w3.org/2000/svg"
    viewBox="0 0 80 80"
    id="vector">
    <path
        id="path"
        d="M 7.642 72.216 L 17.108 72.936 L 23.515 80 L 37.636 51.234 L 22.275 42.344 L 7.642 72.216 Z"
        fill="#ff6326"/>
    <path
        id="path_1"
        d="M 57.725 42.344 L 42.363 51.234 L 56.484 80 L 62.892 72.936 L 72.358 72.216 L 57.725 42.344 Z"
        fill="#ff6326"/>
    <path
        id="path_2"
        d="M 57.725 42.344 L 42.363 51.234 L 56.484 80 L 62.892 72.936 L 72.358 72.216 L 57.725 42.344 Z"
        fill="#ff3838"/>
    <path
        id="path_3"
        d="M 69.595 29.595 L 64.625 22.997 L 65.63 14.798 L 58.027 11.568 L 54.798 3.965 L 46.599 4.97 L 40 0 L 33.402 4.97 L 25.203 3.965 L 21.973 11.568 L 14.37 14.798 L 15.375 22.997 L 10.405 29.595 L 15.375 36.193 L 14.37 44.393 L 21.973 47.622 L 25.203 55.225 L 33.402 54.22 L 40 59.19 L 46.599 54.22 L 54.798 55.225 L 58.027 47.622 L 65.63 44.393 L 64.625 36.193 L 69.595 29.595 Z"
        fill="#ffaf00"/>
    <path
        id="path_4"
        d="M 69.595 29.595 L 64.625 22.997 L 65.63 14.798 L 58.027 11.568 L 54.798 3.965 L 46.598 4.97 L 40 0 L 40 59.19 L 46.598 54.22 L 54.798 55.225 L 58.027 47.622 L 65.63 44.393 L 64.625 36.193 L 69.595 29.595 Z"
        fill="#ff8e00"/>
    <path
        id="path_5"
        d="M 40.001 44.355 C 48.152 44.355 54.76 37.747 54.76 29.595 C 54.76 21.444 48.152 14.836 40.001 14.836 C 31.849 14.836 25.241 21.444 25.241 29.595 C 25.241 37.747 31.849 44.355 40.001 44.355 Z"
        fill="#fff16b"/>
    <path
        id="path_6"
        d="M 54.759 29.595 C 54.759 21.444 48.151 14.836 40 14.836 L 40 44.355 C 48.151 44.355 54.759 37.746 54.759 29.595 L 54.759 29.595 Z"
        fill="#ffd321"/>
    <path
        id="path_7"
        d="M 40 46.698 C 30.57 46.698 22.898 39.026 22.898 29.596 C 22.898 20.165 30.57 12.493 40 12.493 C 49.43 12.493 57.102 20.165 57.102 29.596 C 57.102 39.026 49.43 46.698 40 46.698 Z M 40 17.179 C 33.153 17.179 27.584 22.749 27.584 29.596 C 27.584 36.442 33.153 42.012 40 42.012 C 46.846 42.012 52.416 36.442 52.416 29.596 C 52.416 22.749 46.846 17.179 40 17.179 L 40 17.179 Z"
        fill="#ffd321"/>
    <path
        id="path_8"
        d="M 37.657 24.02 L 42.343 24.02 L 42.343 35.17 L 37.657 35.17 L 37.657 24.02 Z"
        fill="#ffd321"/>
    <path
        id="path_9"
        d="M 40 12.493 L 40 17.179 C 46.846 17.179 52.416 22.749 52.416 29.596 C 52.416 36.442 46.846 42.012 40 42.012 L 40 46.698 C 49.43 46.698 57.102 39.026 57.102 29.596 C 57.102 20.165 49.43 12.493 40 12.493 L 40 12.493 Z"
        fill="#ffaf00"/>
    <path
        id="path_10"
        d="M 40 24.02 L 42.343 24.02 L 42.343 35.17 L 40 35.17 L 40 24.02 Z"
        fill="#ffaf00"/>
</svg>
