<svg
    xmlns="http://www.w3.org/2000/svg"
    viewBox="0 0 100 100"
    id="vector">
    <path
        id="path"
        d="M 88.734 25.14 C 84.019 18.697 77.564 13.73 70.128 10.822 C 62.691 7.915 54.58 7.186 46.744 8.723 C 38.908 10.259 31.673 13.996 25.885 19.497 C 20.096 24.997 15.996 32.034 14.062 39.781 L 9.015 30.109 C 8.824 29.746 8.562 29.424 8.246 29.162 C 7.93 28.9 7.565 28.702 7.172 28.581 C 6.78 28.46 6.367 28.417 5.958 28.456 C 5.55 28.494 5.152 28.612 4.789 28.804 C 4.426 28.996 4.104 29.258 3.842 29.574 C 3.58 29.89 3.382 30.255 3.261 30.647 C 3.14 31.04 3.097 31.452 3.136 31.861 C 3.174 32.27 3.292 32.668 3.484 33.031 L 13.203 51.453 L 13.203 51.547 C 13.314 51.737 13.445 51.915 13.594 52.078 L 13.672 52.172 C 13.846 52.345 14.04 52.497 14.25 52.625 L 14.422 52.718 C 14.592 52.807 14.77 52.881 14.953 52.937 L 15.156 52.937 C 15.396 52.997 15.643 53.029 15.891 53.031 C 16.104 53.053 16.318 53.053 16.531 53.031 L 16.719 53.031 C 16.885 52.982 17.047 52.919 17.203 52.843 L 17.297 52.843 L 35.719 43.125 C 36.088 42.942 36.418 42.688 36.689 42.378 C 36.96 42.068 37.168 41.708 37.3 41.318 C 37.432 40.927 37.486 40.515 37.459 40.104 C 37.431 39.693 37.323 39.291 37.14 38.922 C 36.958 38.552 36.704 38.222 36.394 37.951 C 36.084 37.68 35.724 37.472 35.333 37.34 C 34.943 37.208 34.531 37.154 34.119 37.181 C 33.708 37.209 33.307 37.317 32.937 37.5 L 19.5 44.593 C 20.677 36.873 24.349 29.75 29.955 24.312 C 35.56 18.875 42.792 15.421 50.545 14.48 C 58.297 13.538 66.145 15.16 72.89 19.098 C 79.634 23.035 84.904 29.072 87.895 36.286 C 90.886 43.5 91.434 51.495 89.454 59.05 C 87.475 66.605 83.077 73.304 76.932 78.124 C 70.788 82.945 63.234 85.621 55.426 85.746 C 47.617 85.87 39.982 83.435 33.687 78.812 C 33.358 78.554 32.98 78.365 32.577 78.255 C 32.173 78.146 31.751 78.119 31.337 78.175 C 30.922 78.232 30.523 78.371 30.163 78.585 C 29.804 78.799 29.491 79.082 29.243 79.419 C 28.995 79.756 28.817 80.139 28.72 80.546 C 28.623 80.953 28.608 81.376 28.677 81.788 C 28.747 82.201 28.898 82.595 29.122 82.948 C 29.347 83.301 29.64 83.606 29.984 83.843 C 38.075 89.779 48.023 92.624 58.029 91.862 C 68.035 91.1 77.438 86.782 84.536 79.689 C 91.635 72.596 95.96 63.197 96.73 53.191 C 97.5 43.186 94.664 33.236 88.734 25.14 Z"
        fill="#ffffff"/>
</svg>
